<svg xmlns="http://www.w3.org/2000/svg" style="display: none;">
  <!-- Feature Icons -->
  <symbol id="icon-sun" viewBox="0 0 31 31">
    <circle cx="15.5" cy="15.5" r="15.5" fill="#F9F0E5" />
    <path d="M15.5 5.5V26" stroke="#15005B" stroke-width="1.1" stroke-miterlimit="10" stroke-linecap="round" stroke-linejoin="round" />
    <path d="M15.4999 21.2694C12.4486 21.2694 9.98071 18.8015 9.98071 15.7502C9.98071 12.6988 12.4486 10.231 15.4999 10.231" stroke="#15005B" stroke-width="1.1" stroke-miterlimit="10" stroke-linecap="round" stroke-linejoin="round" />
    <path d="M8.25391 8.50439L9.92545 10.1759" stroke="#15005B" stroke-width="1.1" stroke-miterlimit="10" stroke-linecap="round" stroke-linejoin="round" />
    <path d="M5.25 15.75H7.61538" stroke="#15005B" stroke-width="1.1" stroke-miterlimit="10" stroke-linecap="round" stroke-linejoin="round" />
    <path d="M8.25391 22.9962L9.92545 21.3247" stroke="#15005B" stroke-width="1.1" stroke-miterlimit="10" stroke-linecap="round" stroke-linejoin="round" />
    <path d="M15.5 13.03C16.4462 11.3585 18.2438 10.231 20.3017 10.231C20.4279 10.231 20.5462 10.2388 20.6723 10.2467C19.3556 10.9406 18.4646 12.3204 18.4646 13.9052C18.4646 16.1917 20.3175 18.0446 22.604 18.0446C23.8656 18.0446 24.9931 17.4769 25.75 16.586C25.34 19.2431 23.0613 21.2694 20.3017 21.2694C18.2438 21.2694 16.4462 20.1419 15.5 18.4704" stroke="#15005B" stroke-width="1.1" stroke-miterlimit="10" stroke-linecap="round" stroke-linejoin="round" />
  </symbol>

  <symbol id="icon-bag" viewBox="0 0 31 31">
    <circle cx="15.5" cy="15.5" r="15.5" fill="#F9F0E5" />
    <path d="M11.3472 11.2403C11.3472 11.0091 11.5401 10.8217 11.7782 10.8217H21.855C21.9806 10.8217 22.1 10.875 22.1819 10.9675C22.2638 11.0601 22.3 11.1828 22.2811 11.3035L21.8506 14.0461C21.818 14.2533 21.6343 14.4018 21.425 14.4018C21.4034 14.4018 21.3815 14.4002 21.3595 14.3969C21.1241 14.3621 20.9624 14.1485 20.9983 13.9199L21.3532 11.659H11.7782C11.5401 11.659 11.3472 11.4715 11.3472 11.2403ZM14.6196 18.3779H10.7997L9.20705 9.34797C9.17161 9.14696 8.99221 9 8.7822 9H6.43103C6.19296 9 6 9.18743 6 9.41868C6 9.64993 6.19296 9.83735 6.43103 9.83735H8.41875L10.0114 18.8673C10.0473 19.0713 10.2296 19.2154 10.4357 19.2154C10.4598 19.2153 10.4844 19.2134 10.509 19.2093C10.5107 19.2089 10.5124 19.2087 10.5141 19.2083C10.5395 19.2129 10.5657 19.2152 10.5924 19.2152H14.6196C14.8577 19.2152 15.0506 19.0278 15.0506 18.7965C15.0506 18.5653 14.8577 18.3779 14.6196 18.3779ZM13.7865 21.3407V22.0837C13.7865 22.782 13.2016 23.3502 12.4826 23.3502C11.7636 23.3502 11.1787 22.782 11.1787 22.0837V21.3407C11.1787 20.6423 11.7636 20.0742 12.4825 20.0742C13.2015 20.0742 13.7865 20.6423 13.7865 21.3407ZM12.9244 21.3407C12.9244 21.1041 12.7262 20.9116 12.4826 20.9116H12.4825C12.239 20.9116 12.0408 21.1041 12.0408 21.3407V22.0837C12.0408 22.3203 12.239 22.5128 12.4825 22.5128C12.7262 22.5128 12.9244 22.3203 12.9244 22.0837V21.3407ZM24.9404 17.4357C24.6861 19.4206 23.6512 21.1904 22.0264 22.4192C20.659 23.4533 19.0115 24 17.3059 24C16.9848 24 16.6617 23.9806 16.3379 23.9414C16.0671 23.9086 15.7941 23.8611 15.5263 23.8003C15.3465 23.7595 15.2135 23.6121 15.1954 23.4336C15.1395 22.8812 15.147 22.3206 15.2179 21.7677C15.7431 17.6703 19.6023 14.7516 23.8205 15.2619C24.0916 15.2947 24.3646 15.3422 24.6321 15.403C24.8118 15.4438 24.9448 15.5912 24.9629 15.7695C25.019 16.3217 25.0114 16.8823 24.9404 17.4357ZM24.1286 16.1557C23.9906 16.1306 23.8519 16.1096 23.7138 16.0929C19.9677 15.6399 16.5398 18.232 16.0733 21.8712C16.0467 22.0788 16.0302 22.2875 16.0236 22.4963L19.9669 19.1406C20.1458 18.9882 20.4182 19.0056 20.5751 19.1796C20.7319 19.3535 20.714 19.6181 20.5349 19.7704L16.5909 23.1267C18.3556 23.3036 20.0924 22.8204 21.4967 21.7584C22.9398 20.667 23.859 19.0951 24.0849 17.3322C24.1351 16.9416 24.1497 16.5471 24.1286 16.1557Z" fill="#01005B" stroke="#01005B" stroke-width="0.3" />
  </symbol>

  <symbol id="icon-waves" viewBox="0 0 31 31">
    <circle cx="15.5" cy="15.5" r="15.5" fill="#F9F0E5" />
    <path d="M9.27847 12.3002C10.6372 10.9827 11.7105 9.94096 14.6232 11.7996C16.0224 12.692 17.1509 13.0293 18.0897 13.0275C19.7346 13.0275 20.801 11.9946 21.7226 11.1013C21.8808 10.9459 21.9792 10.727 21.9969 10.491C22.0146 10.2551 21.9502 10.0206 21.8175 9.83731C21.7527 9.74737 21.6726 9.67302 21.582 9.61864C21.4913 9.56427 21.3919 9.53098 21.2897 9.52074C21.1875 9.5105 21.0844 9.52353 20.9867 9.55904C20.889 9.59456 20.7986 9.65185 20.7208 9.72751C19.3629 11.0468 18.2888 12.0886 15.3761 10.2282C11.5277 7.77491 9.7249 9.52285 8.27672 10.9282C8.11864 11.0838 8.02041 11.3027 8.00284 11.5387C7.98527 11.7746 8.04975 12.009 8.18261 12.1922C8.24741 12.282 8.32751 12.3562 8.41815 12.4104C8.50879 12.4646 8.60814 12.4977 8.71032 12.5078C8.8125 12.5178 8.91543 12.5047 9.01302 12.469C9.11061 12.4334 9.20087 12.376 9.27847 12.3002ZM20.7208 14.2133C19.3629 15.5309 18.2888 16.5744 15.3761 14.714C11.5277 12.259 9.7249 14.0078 8.27672 15.4123C8.11864 15.5678 8.02041 15.7868 8.00284 16.0227C7.98527 16.2587 8.04975 16.4931 8.18261 16.6762C8.2473 16.7662 8.32731 16.8405 8.4179 16.8949C8.50848 16.9492 8.60781 16.9825 8.70999 16.9927C8.81217 17.003 8.91513 16.99 9.01278 16.9545C9.11043 16.919 9.20077 16.8617 9.27847 16.786C10.6372 15.4676 11.7105 14.4259 14.6232 16.2836C16.0224 17.1778 17.1509 17.5133 18.0897 17.5133C19.7346 17.5133 20.801 16.4804 21.7226 15.5853C21.8809 15.4302 21.9794 15.2114 21.9971 14.9755C22.0148 14.7397 21.9504 14.5053 21.8175 14.3222C21.7527 14.2323 21.6726 14.1579 21.5819 14.1035C21.4913 14.0491 21.3918 14.0159 21.2896 14.0057C21.1873 13.9956 21.0843 14.0087 20.9866 14.0444C20.8889 14.08 20.7985 14.1375 20.7208 14.2133ZM20.7208 18.6982C19.3629 20.0175 18.2888 21.0593 15.3761 19.2007C11.5277 16.7456 9.7249 18.4936 8.27672 19.899C8.11864 20.0545 8.02041 20.2734 8.00284 20.5094C7.98527 20.7453 8.04975 20.9797 8.18261 21.1629C8.24735 21.2528 8.32742 21.3271 8.41806 21.3814C8.50871 21.4356 8.60808 21.4688 8.71029 21.4789C8.8125 21.489 8.91546 21.4757 9.01306 21.44C9.11066 21.4043 9.20092 21.3468 9.27847 21.271C10.6372 19.9534 11.7105 18.9126 14.6232 20.7703C16.0224 21.6627 17.1509 22 18.0897 22C19.7346 22 20.801 20.9653 21.7226 20.072C21.8808 19.9166 21.9792 19.6977 21.9969 19.4617C22.0146 19.2258 21.9502 18.9913 21.8175 18.808C21.7527 18.7182 21.6726 18.6439 21.5819 18.5896C21.4913 18.5353 21.3919 18.5021 21.2897 18.4918C21.1875 18.4816 21.0845 18.4946 20.9868 18.53C20.8891 18.5655 20.7987 18.6227 20.7208 18.6982Z" fill="#01005B" />
  </symbol>

  <!-- CTA Arrow -->
  <symbol id="icon-arrow-right" viewBox="0 0 23 10">
    <path d="M18.1072 10L23 5.00003L18.1072 0L16.6372 1.5022L19.0205 3.93781L0 3.93781V6.06226L19.0205 6.06226L16.6372 8.4978L18.1072 10Z" fill="currentColor" />
  </symbol>

  <!-- Carousel Arrows -->
  <symbol id="icon-arrow-left" viewBox="0 0 11 21">
    <path d="M10 1L1 10.5L10 20" stroke="currentColor" stroke-width="2" stroke-linecap="round" stroke-linejoin="round" fill="none" />
  </symbol>

  <symbol id="icon-arrow-right-carousel" viewBox="0 0 11 21">
    <path d="M1 1L10 10.5L1 20" stroke="currentColor" stroke-width="2" stroke-linecap="round" stroke-linejoin="round" fill="none" />
  </symbol>

  <!-- Loungewear Feature Icons -->
  <symbol id="icon-ethically" viewBox="0 0 42 42">
    <circle cx="21" cy="21" r="21" fill="#F9F0E5" />
    <g transform="translate(8, 11)">
      <path d="M7.33579 3.13782C7.33579 2.8449 7.58968 2.60749 7.90294 2.60749H21.1618C21.3272 2.60749 21.4843 2.67502 21.592 2.79222C21.6998 2.90948 21.7474 3.06493 21.7225 3.21778L21.156 6.69182C21.1133 6.95427 20.8715 7.1423 20.5961 7.1423C20.5677 7.1423 20.5389 7.14035 20.5099 7.13617C20.2002 7.09203 19.9875 6.82151 20.0347 6.53195L20.5016 3.66814H7.90294C7.58968 3.66814 7.33579 3.43067 7.33579 3.13782ZM11.6416 12.1787H6.61539L4.51986 0.740807C4.47323 0.486193 4.23717 0.300049 3.96084 0.300049H0.867193C0.553941 0.300049 0.300049 0.537457 0.300049 0.830373C0.300049 1.12329 0.553941 1.3607 0.867193 1.3607H3.48261L5.57815 12.7986C5.62547 13.0571 5.86525 13.2395 6.13647 13.2395C6.16823 13.2394 6.20056 13.237 6.23289 13.2318C6.23515 13.2314 6.23736 13.231 6.23963 13.2306C6.27303 13.2364 6.3075 13.2393 6.34266 13.2393H11.6416C11.9549 13.2393 12.2088 13.0019 12.2088 12.709C12.2088 12.4161 11.9549 12.1787 11.6416 12.1787ZM10.5454 15.9316V16.8727C10.5454 17.7573 9.77578 18.4769 8.82978 18.4769C7.88378 18.4769 7.11417 17.7573 7.11417 16.8727V15.9316C7.11417 15.047 7.88372 14.3274 8.82965 14.3274C9.77571 14.3274 10.5454 15.047 10.5454 15.9316ZM9.4111 15.9316C9.4111 15.6319 9.15034 15.388 8.82978 15.388H8.82965C8.50922 15.388 8.24846 15.6319 8.24846 15.9316V16.8727C8.24846 17.1724 8.50922 17.4163 8.82965 17.4163C9.15028 17.4163 9.4111 17.1724 9.4111 16.8727V15.9316ZM25.2216 10.9853C24.887 13.4994 23.5253 15.7412 21.3874 17.2977C19.5882 18.6075 17.4204 19.3 15.1762 19.3C14.7537 19.3 14.3286 19.2755 13.9026 19.2259C13.5463 19.1843 13.1871 19.1242 12.8346 19.0471C12.5981 18.9955 12.423 18.8087 12.3993 18.5826C12.3257 17.8828 12.3356 17.1729 12.4289 16.4725C13.12 11.2824 18.1978 7.58535 23.7481 8.23176C24.1048 8.27336 24.464 8.33352 24.816 8.41048C25.0524 8.46222 25.2274 8.64889 25.2513 8.87481C25.3251 9.57425 25.3151 10.2844 25.2216 10.9853ZM24.1535 9.36394C23.9718 9.33218 23.7894 9.30555 23.6077 9.28434C18.6786 8.71064 14.1682 11.9939 13.5544 16.6036C13.5194 16.8665 13.4976 17.1308 13.489 17.3954L18.6775 13.1448C18.913 12.9518 19.2714 12.9739 19.4778 13.1942C19.6842 13.4145 19.6605 13.7496 19.4249 13.9426L14.2355 18.1939C16.5574 18.418 18.8427 17.8059 20.6904 16.4607C22.5893 15.0783 23.7987 13.0872 24.0959 10.8542C24.162 10.3594 24.1812 9.85974 24.1535 9.36394Z" fill="#01005B" stroke="#01005B" stroke-width="0.6" />
    </g>
  </symbol>

  <symbol id="icon-responsibly" viewBox="0 0 42 42">
    <circle cx="21" cy="21" r="21" fill="#F9F0E5" />
    <path d="M31.6772 29.8173C31.2798 29.4699 30.6744 29.5075 30.3243 29.9018C28.7161 31.7091 26.928 31.0519 26.0955 30.5778C27.8126 19.7576 23.9291 17.7438 18.5887 14.9742C16.3418 13.81 13.797 12.4863 11.2237 10.2377C10.973 10.0171 10.6277 9.94669 10.3108 10.0406C9.99388 10.1345 9.74791 10.3879 9.66277 10.7072C8.26735 15.9741 9.09041 21.0955 11.99 25.1231C14.8376 29.0803 19.3455 31.4979 24.6954 31.9532C25.4569 32.4836 26.6348 33 27.9403 33C29.1843 33 30.5419 32.5306 31.7623 31.1599C32.1076 30.7656 32.0745 30.1647 31.6772 29.8173ZM13.551 24.0153C11.2568 20.8326 10.4385 16.8566 11.1859 12.6787C13.4895 14.4766 15.708 15.6267 17.6994 16.6594C22.5715 19.1849 25.4096 20.6589 24.3974 28.8738L21.9235 25.8789L22.4438 22.8088C22.5289 22.2925 22.1789 21.7996 21.6539 21.7151C21.1335 21.6306 20.6369 21.978 20.5517 22.4943L20.3105 23.9261L16.9804 19.8937L15.1167 17.0866C14.8282 16.6453 14.2322 16.5233 13.7875 16.8143C13.3476 17.1007 13.2246 17.6921 13.5132 18.1287L15.4005 20.9781C15.4194 21.0063 15.4384 21.0344 15.462 21.0579L16.427 22.2268L15.7316 22.2362C15.2018 22.2455 14.7809 22.6774 14.7856 23.1985C14.795 23.7195 15.2208 24.1373 15.7458 24.1373C15.7505 24.1373 15.7553 24.1373 15.76 24.1373L17.9832 24.1045L22.6283 29.7328C18.8346 28.9348 15.6654 26.9538 13.551 24.0153Z" fill="#01005B" />
  </symbol>

  <symbol id="icon-living" viewBox="0 0 42 42">
    <circle cx="21" cy="21" r="21" fill="#F9F0E5" />
    <path d="M21 8V34" stroke="#15005B" stroke-width="1.6" stroke-miterlimit="10" stroke-linecap="round" stroke-linejoin="round" />
    <path d="M20.9998 27.9998C17.1298 27.9998 13.9998 24.8698 13.9998 20.9998C13.9998 17.1298 17.1298 13.9998 20.9998 13.9998" stroke="#15005B" stroke-width="1.6" stroke-miterlimit="10" stroke-linecap="round" stroke-linejoin="round" />
    <path d="M11.8098 11.8105L13.9298 13.9305" stroke="#15005B" stroke-width="1.6" stroke-miterlimit="10" stroke-linecap="round" stroke-linejoin="round" />
    <path d="M8 21H11" stroke="#15005B" stroke-width="1.6" stroke-miterlimit="10" stroke-linecap="round" stroke-linejoin="round" />
    <path d="M11.8098 30.1901L13.9298 28.0701" stroke="#15005B" stroke-width="1.6" stroke-miterlimit="10" stroke-linecap="round" stroke-linejoin="round" />
    <path d="M21 17.5498C22.2 15.4298 24.48 13.9998 27.09 13.9998C27.25 13.9998 27.4 14.0098 27.56 14.0198C25.89 14.8998 24.76 16.6498 24.76 18.6598C24.76 21.5598 27.11 23.9098 30.01 23.9098C31.61 23.9098 33.04 23.1898 34 22.0598C33.48 25.4298 30.59 27.9998 27.09 27.9998C24.48 27.9998 22.2 26.5698 21 24.4498" stroke="#15005B" stroke-width="1.6" stroke-miterlimit="10" stroke-linecap="round" stroke-linejoin="round" />
  </symbol>

  <symbol id="icon-comfortable" viewBox="0 0 42 42">
    <circle cx="21" cy="21" r="21" fill="#F9F0E5" />
    <path d="M12.009 16.5696C14.1442 14.7453 15.8308 13.3029 20.4079 15.8763C22.6066 17.112 24.38 17.579 25.8552 17.5766C28.4402 17.5766 30.1158 16.1463 31.5641 14.9095C31.8127 14.6943 31.9673 14.3912 31.9951 14.0645C32.0229 13.7378 31.9218 13.4131 31.7132 13.1594C31.6114 13.0348 31.4856 12.9319 31.3431 12.8566C31.2007 12.7813 31.0445 12.7352 30.8838 12.721C30.7232 12.7068 30.5613 12.7249 30.4077 12.7741C30.2542 12.8232 30.1121 12.9026 29.9899 13.0073C27.856 14.8341 26.1681 16.2765 21.591 13.7006C15.5436 10.3037 12.7106 12.724 10.4348 14.6699C10.1864 14.8852 10.0321 15.1884 10.0045 15.5151C9.97685 15.8418 10.0782 16.1663 10.287 16.42C10.3888 16.5443 10.5147 16.647 10.6571 16.7221C10.7995 16.7971 10.9557 16.843 11.1162 16.8569C11.2768 16.8709 11.4385 16.8526 11.5919 16.8033C11.7452 16.7539 11.8871 16.6744 12.009 16.5696ZM29.9899 19.2184C27.856 21.0427 26.1681 22.4876 21.591 19.9117C15.5436 16.5124 12.7106 18.9338 10.4348 20.8785C10.1864 21.0939 10.0321 21.3971 10.0045 21.7238C9.97685 22.0505 10.0782 22.375 10.287 22.6286C10.3886 22.7531 10.5143 22.8561 10.6567 22.9313C10.799 23.0066 10.9551 23.0527 11.1157 23.0669C11.2763 23.081 11.4381 23.063 11.5915 23.0139C11.745 22.9647 11.8869 22.8854 12.009 22.7807C14.1442 20.9552 15.8308 19.5128 20.4079 22.085C22.6066 23.3231 24.38 23.7877 25.8552 23.7877C28.4402 23.7877 30.1158 22.3574 31.5641 21.1181C31.8129 20.9033 31.9676 20.6004 31.9955 20.2738C32.0233 19.9472 31.922 19.6227 31.7132 19.3692C31.6114 19.2447 31.4856 19.1417 31.3431 19.0664C31.2006 18.9911 31.0443 18.9451 30.8836 18.931C30.7229 18.917 30.561 18.9352 30.4075 18.9845C30.2539 19.0339 30.1119 19.1134 29.9899 19.2184ZM29.9899 25.4283C27.856 27.255 26.1681 28.6975 21.591 26.124C15.5436 22.7247 12.7106 25.145 10.4348 27.0909C10.1864 27.3062 10.0321 27.6094 10.0045 27.9361C9.97685 28.2628 10.0782 28.5873 10.287 28.841C10.3887 28.9654 10.5145 29.0683 10.657 29.1434C10.7994 29.2186 10.9556 29.2645 11.1162 29.2784C11.2768 29.2924 11.4386 29.2741 11.592 29.2247C11.7453 29.1752 11.8872 29.0956 12.009 28.9906C14.1442 27.1663 15.8308 25.7251 20.4079 28.2973C22.6066 29.533 24.38 30 25.8552 30C28.4402 30 30.1158 28.5673 31.5641 27.3305C31.8127 27.1153 31.9673 26.8122 31.9951 26.4855C32.0229 26.1588 31.9218 25.8341 31.7132 25.5803C31.6113 25.456 31.4854 25.3531 31.343 25.2779C31.2005 25.2028 31.0444 25.1567 30.8838 25.1425C30.7232 25.1284 30.5613 25.1464 30.4078 25.1954C30.2543 25.2445 30.1122 25.3237 29.9899 25.4283Z" fill="#01005B" />
  </symbol>

  <!-- Stars -->
  <symbol id="icon-stars" viewBox="0 0 81 13">
    <path d="M6.815 0L8.4 4.2L13 4.9L9.5 8.1L10.4 12.7L6.815 10.2L3.23 12.7L4.13 8.1L0.63 4.9L5.23 4.2L6.815 0Z" fill="#FFB801"/>
    <path d="M20.445 0L22.03 4.2L26.63 4.9L23.13 8.1L24.03 12.7L20.445 10.2L16.86 12.7L17.76 8.1L14.26 4.9L18.86 4.2L20.445 0Z" fill="#FFB801"/>
    <path d="M34.075 0L35.66 4.2L40.26 4.9L36.76 8.1L37.66 12.7L34.075 10.2L30.49 12.7L31.39 8.1L27.89 4.9L32.49 4.2L34.075 0Z" fill="#FFB801"/>
    <path d="M47.705 0L49.29 4.2L53.89 4.9L50.39 8.1L51.29 12.7L47.705 10.2L44.12 12.7L45.02 8.1L41.52 4.9L46.12 4.2L47.705 0Z" fill="#FFB801"/>
    <path d="M61.335 0L62.92 4.2L67.52 4.9L64.02 8.1L64.92 12.7L61.335 10.2L57.75 12.7L58.65 8.1L55.15 4.9L59.75 4.2L61.335 0Z" fill="#FFB801"/>
  </symbol>
</svg>

